HIERARCHY
ROOT Hips
{
	OFFSET 0.000000 8.830580 0.000000
	CHANNELS 6 Xposition Yposition Zposition Zrotation Yrotation Xrotation 
	JOINT Spine
	{
		OFFSET 0.000000 0.010000 0.000000
		CHANNELS 3 Zrotation Yrotation Xrotation
		JOINT Spine1
		{
			OFFSET 0.000000 2.459130 0.000000
			CHANNELS 3 Zrotation Yrotation Xrotation
			JOINT Neck
			{
				OFFSET 0.000000 2.484630 0.000000
				CHANNELS 3 Zrotation Yrotation Xrotation
				JOINT Head_virtual
				{
					OFFSET 0.000000 0.000000 0.000000
					CHANNELS 3 Zrotation Yrotation Xrotation
					JOINT Head
					{
						OFFSET 0.000000 0.927525 0.000000
						CHANNELS 3 Zrotation Yrotation Xrotation
						End Site
						{
							OFFSET 0.000000 0.000000 0.000000
						}
					}
				}
				JOINT LeftUpArm_virtual
				{
					OFFSET 0.000000 0.000000 0.000000
					CHANNELS 3 Zrotation Yrotation Xrotation
					JOINT LeftUpArm
					{
						OFFSET 1.248820 0.000000 0.000000
						CHANNELS 3 Zrotation Yrotation Xrotation
						JOINT LeftForeArm
						{
							OFFSET 2.597580 0.000000 0.000000
							CHANNELS 3 Zrotation Yrotation Xrotation
							JOINT LeftHand
							{
								OFFSET 2.455420 0.000000 0.000000
								CHANNELS 3 Zrotation Yrotation Xrotation
								End Site
								{
									OFFSET 0.000000 0.000000 0.000000
								}
							}
						}
					}
				}
				JOINT RightUpArm_virtual
				{
					OFFSET -0.000000 -0.000000 -0.000000
					CHANNELS 3 Zrotation Yrotation Xrotation
					JOINT RightUpArm
					{
						OFFSET -1.248820 -0.000000 -0.000000
						CHANNELS 3 Zrotation Yrotation Xrotation
						JOINT RightForeArm
						{
							OFFSET -2.597580 -0.000000 -0.000000
							CHANNELS 3 Zrotation Yrotation Xrotation
							JOINT RightHand
							{
								OFFSET -2.455420 -0.000000 -0.000000
								CHANNELS 3 Zrotation Yrotation Xrotation
								End Site
								{
									OFFSET 0.000000 0.000000 0.000000
								}
							}
						}
					}
				}
			}
		}
	}
	JOINT LeftUpLeg
	{
		OFFSET 1.271939 0.000000 0.000000
		CHANNELS 3 Zrotation Yrotation Xrotation
		JOINT LeftLowLeg
		{
			OFFSET 0.000000 -4.342910 0.000000
			CHANNELS 3 Zrotation Yrotation Xrotation
			JOINT LeftFoot
			{
				OFFSET 0.000000 -4.487670 0.000000
				CHANNELS 3 Zrotation Yrotation Xrotation
				JOINT LeftToeBase
				{
					OFFSET 0.000000 0.000000 1.515070
					CHANNELS 3 Zrotation Yrotation Xrotation
					End Site
					{
						OFFSET 0.000000 0.000000 0.000000
					}
				}
			}
		}
	}
	JOINT RightUpLeg
	{
		OFFSET -1.271939 0.000000 0.000000
		CHANNELS 3 Zrotation Yrotation Xrotation
		JOINT RightLowLeg
		{
			OFFSET 0.000000 -4.342910 0.000000
			CHANNELS 3 Zrotation Yrotation Xrotation
			JOINT RightFoot
			{
				OFFSET 0.000000 -4.487670 0.000000
				CHANNELS 3 Zrotation Yrotation Xrotation
				JOINT RightToeBase
				{
					OFFSET 0.000000 0.000000 1.515070
					CHANNELS 3 Zrotation Yrotation Xrotation
					End Site
					{
						OFFSET 0.000000 0.000000 0.000000
					}
				}
			}
		}
	}
}
MOTION
Frames: 8
Frame Time: 0.041667
-19.269271 0.410424 47.900636 -176.245279 3.735311 121.125558 7.513067 -5.341436 35.143152 -11.409010 0.315315 28.174665 0.000000 0.000000 0.000000 2.728358 -24.238736 5.712360 -2.586826 38.302902 -66.109295 -11.386600 3.977360 2.603020 -23.689100 -8.586340 22.273100 0.000000 -53.265900 0.000000 34.060600 2.383270 18.917200 19.391600 -2.270510 3.943700 35.436798 4.587690 37.420502 0.000000 58.910500 0.000000 -27.136700 -14.605900 1.404860 1.106316 -0.462309 -87.206160 0.000000 0.000000 127.500999 -7.969039 -3.996354 22.930444 0.000000 0.000000 -35.595501 8.567699 -0.154317 -64.992648 0.000000 0.000000 70.819504 21.179560 -3.214078 19.813648 0.000000 0.000000 -30.693300 
-19.267789 0.413680 47.896228 -176.358210 3.757202 121.415447 7.391561 -5.353054 35.185589 -11.304358 0.189454 28.096168 0.000000 0.000000 0.000000 2.135641 -24.047262 6.102528 -2.803243 37.946627 -66.483406 -11.537800 4.092740 2.764790 -23.340900 -8.398090 23.475599 0.000000 -54.746899 0.000000 33.546902 2.800370 18.044500 19.278400 -2.161450 3.977150 35.454700 4.810460 38.190498 0.000000 59.346100 0.000000 -27.248699 -14.260300 1.939620 1.144504 -0.478211 -87.413403 0.000000 0.000000 127.532997 -8.004334 -3.993117 22.836138 0.000000 0.000000 -35.329399 9.153136 -0.465766 -66.178390 0.000000 0.000000 72.707603 22.249618 -3.287752 20.181048 0.000000 0.000000 -30.813100 
-19.270787 0.418849 47.891667 -176.338895 3.789493 121.572487 7.567972 -5.529280 35.343040 -11.413507 0.207066 27.998799 0.000000 0.000000 0.000000 1.808062 -24.142831 6.648990 -3.160372 37.685284 -67.151579 -11.358000 3.989760 3.013300 -23.493799 -8.385130 24.299299 0.000000 -55.679501 0.000000 33.168598 2.926570 18.277100 19.361300 -2.210020 3.960440 35.393398 5.032420 38.912998 0.000000 59.563202 0.000000 -27.742599 -14.209200 2.140780 1.253761 -0.642544 -87.514460 0.000000 0.000000 127.603996 -8.431205 -3.978111 22.672346 0.000000 0.000000 -35.162901 9.658397 -0.885546 -67.286843 0.000000 0.000000 74.856903 22.962298 -2.899671 20.533845 0.000000 0.000000 -30.610900 
-19.262921 0.417789 47.889222 -176.542067 3.873141 121.745235 7.308388 -5.324062 35.567963 -11.019881 0.115093 27.853561 0.000000 0.000000 0.000000 1.089129 -23.810689 7.036891 -2.969541 37.219429 -67.403929 -11.163300 3.803940 3.135100 -23.930599 -8.100790 24.981899 0.000000 -56.491100 0.000000 33.008301 2.867840 18.212000 19.165001 -2.098580 4.127120 35.425301 5.293960 39.401402 0.000000 59.599098 0.000000 -28.193199 -14.438300 1.878650 1.341680 -0.435866 -87.665618 0.000000 0.000000 127.692001 -8.814334 -4.027220 22.491333 0.000000 0.000000 -34.819901 10.140960 -0.941999 -68.524374 0.000000 0.000000 77.096901 23.765528 -2.885682 20.909334 0.000000 0.000000 -30.505600 
-19.260579 0.416720 47.886473 -176.669398 3.936552 122.009243 7.133963 -5.245845 35.663627 -10.680762 0.025655 27.820703 0.000000 0.000000 0.000000 0.484626 -23.524115 7.297207 -2.815039 36.812192 -67.826013 -11.114000 3.836650 3.173500 -24.176100 -8.175240 25.828100 0.000000 -57.073799 0.000000 32.911499 2.884390 18.094101 18.971600 -2.020210 4.271490 35.431801 5.681170 39.833302 0.000000 59.349400 0.000000 -28.318199 -14.495100 1.834400 1.411812 -0.371727 -87.929591 0.000000 0.000000 127.763000 -9.148462 -4.105622 22.503100 0.000000 0.000000 -34.927200 10.776812 -1.183289 -69.953556 0.000000 0.000000 79.503700 24.653656 -3.052169 21.167558 0.000000 0.000000 -30.509900 
-19.260095 0.416698 47.883820 -176.798150 3.926157 122.176312 6.937560 -5.226032 35.744341 -10.453238 -0.106455 28.015052 0.000000 0.000000 0.000000 0.323110 -23.570226 7.185686 -3.072681 36.574427 -68.088722 -11.184300 3.953740 3.496710 -24.105101 -8.553910 26.355900 0.000000 -57.548801 0.000000 32.793499 3.090460 17.605700 18.778000 -1.789540 4.223860 35.408901 5.843550 40.302700 0.000000 59.246899 0.000000 -28.709900 -14.513200 1.520910 1.363337 -0.374421 -88.083211 0.000000 0.000000 127.794998 -8.778977 -4.124468 22.630487 0.000000 0.000000 -35.287600 11.002474 -1.301273 -71.341210 0.000000 0.000000 82.105003 24.610929 -2.391629 21.534062 0.000000 0.000000 -30.648200 
-19.260563 0.415320 47.884302 -176.969845 3.901423 122.170797 6.879247 -5.191968 36.108388 -10.496838 -0.153892 27.945409 0.000000 0.000000 0.000000 -0.038555 -23.222504 7.286479 -2.440362 36.383400 -68.078279 -11.046100 3.888390 3.641250 -23.993799 -8.772740 27.440001 0.000000 -57.950001 0.000000 32.745701 3.459460 16.237600 18.768700 -1.689640 4.397800 35.291302 5.927940 40.497601 0.000000 59.453400 0.000000 -29.244101 -15.065600 0.602734 1.294835 -0.374613 -88.046988 0.000000 0.000000 127.760002 -8.817607 -4.024512 22.639342 0.000000 0.000000 -35.243401 11.519234 -1.545763 -72.661056 0.000000 0.000000 84.713799 26.119120 -2.491748 21.658371 0.000000 0.000000 -30.744700 
-19.278278 0.399451 47.871460 -177.527807 3.050325 124.036676 6.365754 -5.008448 34.623913 -10.515356 -0.542428 27.574141 0.000000 0.000000 0.000000 -0.221738 -23.104986 7.033368 -2.230473 36.131981 -67.354381 -10.586300 3.857890 4.093980 -24.604500 -9.026120 28.549700 0.000000 -58.070202 0.000000 33.042198 3.892760 14.382000 18.011999 -1.895200 4.741470 35.691799 6.066520 40.684898 0.000000 59.717701 0.000000 -29.600000 -15.148700 0.386499 0.137415 -0.710555 -89.873642 0.000000 0.000000 127.608002 -8.765035 -3.795932 22.681974 0.000000 0.000000 -35.516500 10.901396 -1.521019 -76.437638 0.000000 0.000000 88.069603 25.979415 -1.899160 21.837931 0.000000 0.000000 -30.818100 
